<svg width="128" height="28" viewBox="0 0 128 28" fill="none" xmlns="http://www.w3.org/2000/svg">
<path d="M2.5 15.24V13.51C2.5 11.44 4.18999 9.75 6.25999 9.75H17.74C19.81 9.75 21.5 11.44 21.5 13.51V14.95H19.48C18.92 14.95 18.41 15.17 18.04 15.55C17.62 15.96 17.38 16.55 17.44 17.18C17.53 18.26 18.52 19.05 19.6 19.05H21.5V20.24C21.5 22.31 19.81 24 17.74 24H12.26" stroke="#90A3BF" stroke-width="1.5" stroke-linecap="round" stroke-linejoin="round"/>
<path d="M2.5 14.41V9.84004C2.5 8.65004 3.23 7.59 4.34 7.17L12.28 4.17C13.52 3.7 14.85 4.62003 14.85 5.95003V9.75002" stroke="#90A3BF" stroke-width="1.5" stroke-linecap="round" stroke-linejoin="round"/>
<path d="M22.5588 15.9702V18.0302C22.5588 18.5802 22.1188 19.0302 21.5588 19.0502H19.5988C18.5188 19.0502 17.5288 18.2602 17.4388 17.1802C17.3788 16.5502 17.6188 15.9602 18.0388 15.5502C18.4088 15.1702 18.9188 14.9502 19.4788 14.9502H21.5588C22.1188 14.9702 22.5588 15.4202 22.5588 15.9702Z" stroke="#90A3BF" stroke-width="1.5" stroke-linecap="round" stroke-linejoin="round"/>
<path d="M7 14H14" stroke="#90A3BF" stroke-width="1.5" stroke-linecap="round" stroke-linejoin="round"/>
<path d="M3 18.5H8.34C8.98 18.5 9.5 19.02 9.5 19.66V20.94" stroke="#90A3BF" stroke-width="1.5" stroke-miterlimit="10" stroke-linecap="round" stroke-linejoin="round"/>
<path d="M4.22 17.28L3 18.5L4.22 19.72" stroke="#90A3BF" stroke-width="1.5" stroke-miterlimit="10" stroke-linecap="round" stroke-linejoin="round"/>
<path d="M9.5 23.78H4.16C3.52 23.78 3 23.26 3 22.62V21.34" stroke="#90A3BF" stroke-width="1.5" stroke-miterlimit="10" stroke-linecap="round" stroke-linejoin="round"/>
<path d="M8.28125 25.0003L9.50125 23.7803L8.28125 22.5603" stroke="#90A3BF" stroke-width="1.5" stroke-miterlimit="10" stroke-linecap="round" stroke-linejoin="round"/>
<path d="M37.328 21V9.08H41.536C42.3253 9.08 43.0187 9.22933 43.616 9.528C44.2133 9.82667 44.6773 10.2533 45.008 10.808C45.3493 11.3627 45.52 12.0133 45.52 12.76C45.52 13.6027 45.3067 14.3173 44.88 14.904C44.4533 15.4907 43.8773 15.912 43.152 16.168L45.92 21H44.096L41.184 15.832L42.224 16.44H38.896V21H37.328ZM38.896 15H41.584C42.0533 15 42.464 14.9093 42.816 14.728C43.168 14.5467 43.44 14.2853 43.632 13.944C43.8347 13.6027 43.936 13.208 43.936 12.76C43.936 12.3013 43.8347 11.9067 43.632 11.576C43.44 11.2347 43.168 10.9733 42.816 10.792C42.464 10.6107 42.0533 10.52 41.584 10.52H38.896V15ZM50.6906 21.192C49.8586 21.192 49.1173 20.9947 48.4666 20.6C47.816 20.2053 47.304 19.6667 46.9306 18.984C46.5573 18.2907 46.3706 17.5173 46.3706 16.664C46.3706 15.8 46.552 15.032 46.9146 14.36C47.288 13.688 47.7893 13.16 48.4186 12.776C49.0586 12.3813 49.7733 12.184 50.5626 12.184C51.2026 12.184 51.768 12.3013 52.2586 12.536C52.76 12.76 53.1813 13.0693 53.5226 13.464C53.8746 13.848 54.1413 14.2907 54.3226 14.792C54.5146 15.2827 54.6106 15.7947 54.6106 16.328C54.6106 16.4453 54.6 16.5787 54.5786 16.728C54.568 16.8667 54.552 17 54.5306 17.128H47.4586V15.848H53.6666L52.9626 16.424C53.0586 15.8693 53.0053 15.3733 52.8026 14.936C52.6 14.4987 52.3013 14.152 51.9066 13.896C51.512 13.64 51.064 13.512 50.5626 13.512C50.0613 13.512 49.6026 13.64 49.1866 13.896C48.7706 14.152 48.4453 14.52 48.2106 15C47.9866 15.4693 47.896 16.0293 47.9386 16.68C47.896 17.3093 47.992 17.864 48.2266 18.344C48.472 18.8133 48.8133 19.1813 49.2506 19.448C49.6986 19.704 50.184 19.832 50.7066 19.832C51.2826 19.832 51.768 19.6987 52.1626 19.432C52.5573 19.1653 52.8773 18.824 53.1226 18.408L54.3706 19.048C54.2 19.4427 53.9333 19.8053 53.5706 20.136C53.2186 20.456 52.7973 20.712 52.3066 20.904C51.8266 21.096 51.288 21.192 50.6906 21.192ZM56.2308 21V12.376H57.7188V21H56.2308ZM56.2308 11V9.08H57.7188V11H56.2308ZM59.7076 21V12.376H61.1636V14.136L60.9556 13.864C61.169 13.32 61.5103 12.904 61.9796 12.616C62.449 12.328 62.977 12.184 63.5636 12.184C64.2356 12.184 64.8383 12.3707 65.3716 12.744C65.9156 13.1173 66.289 13.608 66.4916 14.216L66.0756 14.232C66.2996 13.56 66.6783 13.0533 67.2116 12.712C67.745 12.36 68.337 12.184 68.9876 12.184C69.585 12.184 70.1236 12.3227 70.6036 12.6C71.0943 12.8773 71.4836 13.2613 71.7716 13.752C72.0596 14.2427 72.2036 14.7973 72.2036 15.416V21H70.6996V15.896C70.6996 15.416 70.6143 15.0107 70.4436 14.68C70.273 14.3493 70.0383 14.0933 69.7396 13.912C69.4516 13.72 69.1103 13.624 68.7156 13.624C68.3316 13.624 67.985 13.72 67.6756 13.912C67.377 14.0933 67.137 14.3547 66.9556 14.696C66.785 15.0267 66.6996 15.4267 66.6996 15.896V21H65.1956V15.896C65.1956 15.416 65.1103 15.0107 64.9396 14.68C64.769 14.3493 64.5343 14.0933 64.2356 13.912C63.9476 13.72 63.6063 13.624 63.2116 13.624C62.8276 13.624 62.481 13.72 62.1716 13.912C61.873 14.0933 61.633 14.3547 61.4516 14.696C61.281 15.0267 61.1956 15.4267 61.1956 15.896V21H59.7076ZM78.461 21.192C77.7677 21.192 77.133 21.0373 76.557 20.728C75.9917 20.4187 75.5543 19.9813 75.245 19.416L75.453 19.16V21H73.997V8.888H75.485V14.232L75.261 13.864C75.581 13.352 76.0183 12.9467 76.573 12.648C77.1277 12.3387 77.7623 12.184 78.477 12.184C79.2877 12.184 80.013 12.3813 80.653 12.776C81.3037 13.1707 81.8157 13.7093 82.189 14.392C82.5623 15.064 82.749 15.832 82.749 16.696C82.749 17.5387 82.5623 18.3013 82.189 18.984C81.8157 19.6667 81.3037 20.2053 80.653 20.6C80.013 20.9947 79.2823 21.192 78.461 21.192ZM78.349 19.752C78.893 19.752 79.3783 19.6187 79.805 19.352C80.2317 19.0853 80.5623 18.7227 80.797 18.264C81.0423 17.7947 81.165 17.272 81.165 16.696C81.165 16.0987 81.0423 15.576 80.797 15.128C80.5623 14.6693 80.2317 14.3067 79.805 14.04C79.3783 13.7627 78.893 13.624 78.349 13.624C77.805 13.624 77.3143 13.7573 76.877 14.024C76.4503 14.2907 76.109 14.6587 75.853 15.128C75.6077 15.5867 75.485 16.1093 75.485 16.696C75.485 17.272 75.6077 17.7947 75.853 18.264C76.109 18.7227 76.4503 19.0853 76.877 19.352C77.3143 19.6187 77.805 19.752 78.349 19.752ZM87.4361 21.192C86.8175 21.192 86.2575 21.048 85.7561 20.76C85.2655 20.472 84.8815 20.072 84.6041 19.56C84.3375 19.0373 84.2041 18.44 84.2041 17.768V12.376H85.6921V17.608C85.6921 18.0347 85.7775 18.408 85.9481 18.728C86.1295 19.048 86.3748 19.2987 86.6841 19.48C87.0041 19.6613 87.3668 19.752 87.7721 19.752C88.1775 19.752 88.5348 19.6613 88.8441 19.48C89.1641 19.2987 89.4095 19.0373 89.5801 18.696C89.7615 18.3547 89.8521 17.9493 89.8521 17.48V12.376H91.3561V21H89.9001V19.32L90.1401 19.464C89.9375 20.008 89.5908 20.4347 89.1001 20.744C88.6201 21.0427 88.0655 21.192 87.4361 21.192ZM93.3414 21V12.376H94.7974V13.96L94.6374 13.736C94.84 13.2453 95.1494 12.8827 95.5654 12.648C95.9814 12.4027 96.488 12.28 97.0854 12.28H97.6134V13.688H96.8614C96.2534 13.688 95.7627 13.88 95.3894 14.264C95.016 14.6373 94.8294 15.1707 94.8294 15.864V21H93.3414ZM101.703 21.192C100.839 21.192 100.087 20.9787 99.4471 20.552C98.8071 20.1253 98.3538 19.5493 98.0871 18.824L99.2711 18.248C99.5165 18.76 99.8525 19.1653 100.279 19.464C100.706 19.7627 101.18 19.912 101.703 19.912C102.172 19.912 102.562 19.8 102.871 19.576C103.18 19.352 103.335 19.0587 103.335 18.696C103.335 18.44 103.26 18.2373 103.111 18.088C102.972 17.928 102.802 17.8053 102.599 17.72C102.396 17.624 102.21 17.5547 102.039 17.512L100.743 17.144C99.9645 16.92 99.3938 16.6 99.0311 16.184C98.6791 15.768 98.5031 15.2827 98.5031 14.728C98.5031 14.216 98.6311 13.7733 98.8871 13.4C99.1538 13.016 99.5111 12.7173 99.9591 12.504C100.418 12.2907 100.93 12.184 101.495 12.184C102.252 12.184 102.93 12.376 103.527 12.76C104.135 13.144 104.567 13.6827 104.823 14.376L103.607 14.936C103.415 14.488 103.127 14.136 102.743 13.88C102.359 13.6133 101.927 13.48 101.447 13.48C101.01 13.48 100.663 13.592 100.407 13.816C100.151 14.0293 100.023 14.3013 100.023 14.632C100.023 14.8773 100.087 15.08 100.215 15.24C100.343 15.3893 100.498 15.5067 100.679 15.592C100.86 15.6667 101.036 15.7307 101.207 15.784L102.615 16.2C103.319 16.4027 103.863 16.7173 104.247 17.144C104.642 17.5707 104.839 18.0827 104.839 18.68C104.839 19.16 104.706 19.592 104.439 19.976C104.172 20.36 103.804 20.6587 103.335 20.872C102.866 21.0853 102.322 21.192 101.703 21.192ZM110.435 21.192C109.603 21.192 108.862 20.9947 108.211 20.6C107.56 20.2053 107.048 19.6667 106.675 18.984C106.302 18.2907 106.115 17.5173 106.115 16.664C106.115 15.8 106.296 15.032 106.659 14.36C107.032 13.688 107.534 13.16 108.163 12.776C108.803 12.3813 109.518 12.184 110.307 12.184C110.947 12.184 111.512 12.3013 112.003 12.536C112.504 12.76 112.926 13.0693 113.267 13.464C113.619 13.848 113.886 14.2907 114.067 14.792C114.259 15.2827 114.355 15.7947 114.355 16.328C114.355 16.4453 114.344 16.5787 114.323 16.728C114.312 16.8667 114.296 17 114.275 17.128H107.203V15.848H113.411L112.707 16.424C112.803 15.8693 112.75 15.3733 112.547 14.936C112.344 14.4987 112.046 14.152 111.651 13.896C111.256 13.64 110.808 13.512 110.307 13.512C109.806 13.512 109.347 13.64 108.931 13.896C108.515 14.152 108.19 14.52 107.955 15C107.731 15.4693 107.64 16.0293 107.683 16.68C107.64 17.3093 107.736 17.864 107.971 18.344C108.216 18.8133 108.558 19.1813 108.995 19.448C109.443 19.704 109.928 19.832 110.451 19.832C111.027 19.832 111.512 19.6987 111.907 19.432C112.302 19.1653 112.622 18.824 112.867 18.408L114.115 19.048C113.944 19.4427 113.678 19.8053 113.315 20.136C112.963 20.456 112.542 20.712 112.051 20.904C111.571 21.096 111.032 21.192 110.435 21.192Z" fill="#90A3BF"/>
</svg>
